<svg width="31" height="29" viewBox="0 0 31 29" fill="none" xmlns="http://www.w3.org/2000/svg">
<path d="M5.01197 10.0237H1.00241C0.448849 10.0237 0 10.4725 0 11.0261V27.0641C0 27.6177 0.448782 28.0665 1.00241 28.0665H5.0119C5.56546 28.0665 6.01431 27.6178 6.01431 27.0641V11.0261C6.01431 10.4725 5.56559 10.0237 5.01197 10.0237Z" fill="#6D010C"/>
<path d="M30.0519 12.6809C29.8751 11.1259 28.4226 10.0238 26.8576 10.0238H19.0427C19.7069 8.83459 20.0634 5.47102 20.0475 4.097C20.0213 1.82261 18.1378 0 15.8634 0H15.0362C14.4822 0 14.0338 0.448316 14.0338 1.00241C14.0338 3.32035 13.1313 7.50418 11.429 9.20647C10.2833 10.3522 9.30385 10.7674 8.01953 11.4092V26.4499C9.98586 27.1053 12.4825 28.0667 16.2878 28.0667H22.8449C25.0054 28.0667 26.6881 26.0657 25.8509 23.9515C27.1264 23.604 28.0671 22.4342 28.0671 21.05C28.0671 20.6594 27.9917 20.2855 27.8557 19.9419C30.0051 19.3563 30.7963 16.7022 29.3044 15.0357C29.8525 14.4234 30.1548 13.5859 30.0519 12.6809Z" fill="#6D010C"/>
</svg>
